<svg width="500" height="500" viewBox="0 0 500 500" fill="none" xmlns="http://www.w3.org/2000/svg">
<circle cx="250" cy="250" r="250" fill="#F4F4F5"/>
<mask id="mask0" mask-type="alpha" maskUnits="userSpaceOnUse" x="0" y="0" width="500" height="500">
<circle cx="250" cy="250" r="250" fill="#F4F4F5"/>
</mask>
<g mask="url(#mask0)">
<path d="M250 320.5C126.5 320.5 58.5006 379.001 58.5006 485C58.5006 493.501 65.0007 500 73.5001 500H426.5C435 500 441.499 493.5 441.499 485C441.499 379 373.5 320.5 250 320.5Z" fill="#D4D4D8"/>
</g>
<path d="M250 298.5C305 298.5 349.5 249.999 349.5 190.5C349.5 132.5 306.5 89 250 89C193.501 89 150.5 132.5 150.5 190.5C150.5 250 195 298.5 250 298.5Z" fill="#D4D4D8"/>
</svg>
